<?xml version="1.0" encoding="utf-8"?>
<!-- Generator: Adobe Illustrator 27.8.1, SVG Export Plug-In . SVG Version: 6.00 Build 0)  -->
<svg version="1.1" id="레이어_1" xmlns="http://www.w3.org/2000/svg" xmlns:xlink="http://www.w3.org/1999/xlink" x="0px"
	 y="0px" width="141.7px" height="170.9px" viewBox="0 0 141.7 170.9" style="enable-background:new 0 0 141.7 170.9;"
	 xml:space="preserve">
<style type="text/css">
	.st0{opacity:0.3;fill:#48B1F8;}
	.st1{fill:none;stroke:#000000;stroke-miterlimit:10;}
	.st2{opacity:0.3;fill:#4AD33C;}
	.st3{opacity:0.3;fill:#FFAA64;}
	.st4{opacity:0.3;fill:#FFFF00;}
	.st5{opacity:0.3;fill:#FF83B6;}
	.st6{opacity:0.3;fill:#938FFF;}
	.st7{fill:#E0F1F7;}
</style>
<g>
	<polygon class="st6" points="110.9,45.1 70.9,45.1 90.9,79.8 70.9,114.4 50.9,79.8 10.9,79.8 30.9,45.1 50.9,10.5 130.9,10.5 	"/>
	<line class="st1" x1="50.9" y1="10.5" x2="70.9" y2="45.1"/>
	<line class="st1" x1="70.9" y1="45.1" x2="30.9" y2="45.1"/>
	<line class="st1" x1="50.9" y1="79.8" x2="30.9" y2="45.1"/>
	<line class="st1" x1="50.9" y1="79.8" x2="70.9" y2="45.1"/>
	<line class="st1" x1="50.9" y1="79.8" x2="90.9" y2="79.8"/>
	<line class="st1" x1="110.9" y1="45.1" x2="90.9" y2="10.5"/>
	<line class="st1" x1="90.9" y1="10.5" x2="70.9" y2="45.1"/>
	<polygon class="st1" points="110.9,45.1 70.9,45.1 90.9,79.8 70.9,114.4 50.9,79.8 10.9,79.8 30.9,45.1 50.9,10.5 130.9,10.5 	"/>
</g>
<g>
	<g>
		<path class="st7" d="M55.4,160.9c-2.8,0-5-2.2-5-5v-16.4c0-2.8,2.2-5,5-5h31c2.8,0,5,2.2,5,5v16.4c0,2.8-2.2,5-5,5H55.4z"/>
	</g>
	<g>
		<path d="M63.5,146.2c0,1-0.1,1.8-0.3,2.6s-0.5,1.4-0.9,1.8c-0.4,0.5-0.8,0.9-1.3,1.1c-0.5,0.3-1.1,0.4-1.7,0.4
			c-0.6,0-1.1-0.1-1.7-0.4c-0.5-0.3-1-0.6-1.3-1.1c-0.4-0.5-0.7-1.1-0.9-1.8s-0.3-1.6-0.3-2.6c0-1,0.1-1.8,0.3-2.5
			c0.2-0.7,0.5-1.3,0.9-1.8c0.4-0.5,0.8-0.9,1.3-1.1c0.5-0.3,1.1-0.4,1.7-0.4c0.6,0,1.1,0.1,1.7,0.4c0.5,0.3,1,0.6,1.3,1.1
			c0.4,0.5,0.7,1.1,0.9,1.8C63.4,144.4,63.5,145.3,63.5,146.2z M62,146.2c0-0.7-0.1-1.3-0.2-1.8c-0.1-0.6-0.3-1-0.5-1.4
			c-0.2-0.4-0.5-0.7-0.8-0.9s-0.7-0.3-1.1-0.3s-0.8,0.1-1.1,0.3c-0.3,0.2-0.6,0.5-0.8,0.9c-0.2,0.4-0.4,0.9-0.5,1.4
			c-0.1,0.6-0.2,1.2-0.2,1.8c0,0.7,0.1,1.3,0.2,1.8c0.1,0.6,0.3,1,0.5,1.4c0.2,0.4,0.5,0.7,0.8,0.9c0.3,0.2,0.7,0.3,1.1,0.3
			s0.8-0.1,1.1-0.3s0.6-0.5,0.8-0.9c0.2-0.4,0.4-0.9,0.5-1.4C61.9,147.5,62,146.9,62,146.2z M70.5,146.9h-2.8v8.9h-1.5v-16.4h1.5
			v6.1h2.8V146.9z"/>
		<path d="M75.5,149.1h-3.6v-5.2h5.9v-2.4h-5.9v-1.3h7.5v5h-5.9v2.7h2.2c1.4,0,2.6-0.1,3.7-0.2s1.9-0.3,2.7-0.5v1.3
			c-0.9,0.2-1.9,0.4-3,0.5C77.9,149,76.7,149.1,75.5,149.1z M84.9,155.5H74.3V151h1.6v3.2h9.1V155.5z M83,139.4h1.5v12.4H83V139.4z"
			/>
	</g>
</g>
</svg>
