<?xml version="1.0" encoding="iso-8859-1"?>
<!-- Generator: Adobe Illustrator 27.8.1, SVG Export Plug-In . SVG Version: 6.00 Build 0)  -->
<svg version="1.1" id="&#xB808;&#xC774;&#xC5B4;_1" xmlns="http://www.w3.org/2000/svg" xmlns:xlink="http://www.w3.org/1999/xlink"
	 x="0px" y="0px" width="121.73px" height="170.854px" viewBox="0 0 121.73 170.854"
	 style="enable-background:new 0 0 121.73 170.854;" xml:space="preserve">
<style type="text/css">
	.st0{opacity:0.3;fill:#48B1F8;}
	.st1{fill:none;stroke:#000000;stroke-miterlimit:10;}
	.st2{opacity:0.3;fill:#4AD33C;}
	.st3{opacity:0.3;fill:#FFAA64;}
	.st4{opacity:0.3;fill:#FFFF00;}
	.st5{opacity:0.3;fill:#FF83B6;}
	.st6{opacity:0.3;fill:#938FFF;}
	.st7{fill:#E0F1F7;}
</style>
<g>
	<polygon class="st6" points="90.86,10.501 110.865,45.14 90.86,79.783 70.865,45.14 50.865,79.78 10.865,79.78 30.865,45.14 
		50.865,10.5 	"/>
	<line class="st1" x1="50.86" y1="10.501" x2="70.86" y2="45.142"/>
	<line class="st1" x1="110.86" y1="45.142" x2="30.86" y2="45.142"/>
	<line class="st1" x1="50.86" y1="79.783" x2="30.86" y2="45.142"/>
	<line class="st1" x1="90.86" y1="10.501" x2="70.86" y2="45.142"/>
	<polygon class="st1" points="90.86,10.501 110.865,45.14 90.86,79.783 70.865,45.14 50.865,79.78 10.865,79.78 30.865,45.14 
		50.865,10.5 	"/>
</g>
<g>
	<g>
		<path class="st7" d="M45.385,160.854c-2.75,0-5-2.25-5-5V139.42c0-2.75,2.25-5,5-5h30.96c2.75,0,5,2.25,5,5v16.434
			c0,2.75-2.25,5-5,5H45.385z"/>
	</g>
	<g>
		<path d="M45.511,152.254l-1.116-0.99c0.732-0.527,1.41-1.134,2.034-1.817c0.624-0.685,1.152-1.468,1.584-2.35
			s0.753-1.875,0.963-2.979c0.21-1.104,0.267-2.334,0.171-3.69h1.638c0.024,0.792,0,1.542-0.072,2.25
			c-0.072,0.708-0.174,1.386-0.306,2.034c0.432,1.236,1.044,2.367,1.836,3.393c0.792,1.026,1.734,1.905,2.826,2.638l-1.008,1.151
			c-0.9-0.636-1.707-1.389-2.421-2.259s-1.323-1.851-1.827-2.942c-0.456,1.176-1.047,2.223-1.773,3.141
			S46.471,151.558,45.511,152.254z M53.269,146.404v-1.351h3.672v-5.634h1.548v16.434h-1.548v-9.449H53.269z"/>
		<path d="M72.403,152.307h-1.584v-3.617h-3.222v3.617h-1.584v-3.6h-5.328v-1.314h15.678v1.314h-3.96V152.307z M74.491,155.601
			h-11.43v-5.075h1.548v3.726h9.882V155.601z M73.933,142.732c0,0.492-0.114,0.947-0.342,1.367
			c-0.228,0.421-0.567,0.783-1.017,1.089c-0.45,0.307-1.014,0.544-1.692,0.712c-0.678,0.168-1.461,0.252-2.349,0.252
			c-0.9,0-1.686-0.084-2.358-0.252c-0.672-0.168-1.236-0.405-1.692-0.712c-0.456-0.306-0.798-0.668-1.026-1.089
			c-0.229-0.42-0.342-0.875-0.342-1.367s0.114-0.951,0.342-1.378c0.228-0.426,0.57-0.792,1.026-1.098s1.02-0.546,1.692-0.72
			c0.672-0.174,1.458-0.261,2.358-0.261c0.888,0,1.671,0.087,2.349,0.261c0.678,0.174,1.242,0.414,1.692,0.72
			c0.45,0.306,0.789,0.672,1.017,1.098C73.819,141.781,73.933,142.24,73.933,142.732z M72.223,142.767
			c0-0.288-0.072-0.563-0.216-0.827c-0.144-0.265-0.366-0.495-0.666-0.693c-0.3-0.198-0.681-0.357-1.143-0.478
			c-0.462-0.119-1.017-0.18-1.665-0.18s-1.209,0.061-1.683,0.18c-0.474,0.12-0.861,0.279-1.161,0.478
			c-0.3,0.198-0.522,0.429-0.666,0.693c-0.144,0.264-0.216,0.539-0.216,0.827s0.072,0.556,0.216,0.802s0.366,0.465,0.666,0.656
			c0.3,0.192,0.687,0.343,1.161,0.45c0.474,0.108,1.035,0.162,1.683,0.162s1.203-0.054,1.665-0.162
			c0.462-0.107,0.843-0.258,1.143-0.45c0.3-0.191,0.522-0.41,0.666-0.656S72.223,143.055,72.223,142.767z"/>
	</g>
</g>
</svg>
