<?xml version="1.0" encoding="iso-8859-1"?>
<!-- Generator: Adobe Illustrator 27.8.1, SVG Export Plug-In . SVG Version: 6.00 Build 0)  -->
<svg version="1.1" id="&#xB808;&#xC774;&#xC5B4;_1" xmlns="http://www.w3.org/2000/svg" xmlns:xlink="http://www.w3.org/1999/xlink"
	 x="0px" y="0px" width="161.732px" height="171.36px" viewBox="0 0 161.732 171.36"
	 style="enable-background:new 0 0 161.732 171.36;" xml:space="preserve">
<style type="text/css">
	.st0{opacity:0.3;fill:#48B1F8;}
	.st1{fill:none;stroke:#000000;stroke-miterlimit:10;}
	.st2{opacity:0.3;fill:#4AD33C;}
	.st3{opacity:0.3;fill:#FFAA64;}
	.st4{opacity:0.3;fill:#FFFF00;}
	.st5{opacity:0.3;fill:#FF83B6;}
	.st6{opacity:0.3;fill:#938FFF;}
	.st7{fill:#E0F1F7;}
</style>
<g>
	<polygon class="st5" points="130.866,80.282 90.866,80.282 110.866,114.922 30.866,114.922 10.866,80.282 50.866,80.282 
		70.866,45.642 150.866,45.642 	"/>
	<line class="st1" x1="70.866" y1="45.644" x2="90.866" y2="80.285"/>
	<line class="st1" x1="90.866" y1="80.285" x2="50.866" y2="80.285"/>
	<line class="st1" x1="70.866" y1="114.926" x2="50.866" y2="80.285"/>
	<line class="st1" x1="70.866" y1="114.926" x2="90.866" y2="80.285"/>
	<line class="st1" x1="30.866" y1="114.926" x2="50.866" y2="80.285"/>
	<line class="st1" x1="110.866" y1="45.644" x2="90.866" y2="80.285"/>
	<line class="st1" x1="110.866" y1="45.644" x2="130.866" y2="80.285"/>
	<polygon class="st1" points="130.866,80.282 90.866,80.282 110.866,114.922 30.866,114.922 10.866,80.282 50.866,80.282 
		70.866,45.642 150.866,45.642 	"/>
</g>
<g>
	<g>
		<path class="st7" d="M65.386,161.36c-2.75,0-5-2.25-5-5v-16.434c0-2.75,2.25-5,5-5h30.96c2.75,0,5,2.25,5,5v16.434
			c0,2.75-2.25,5-5,5H65.386z"/>
	</g>
	<g>
		<path d="M64.81,150.312v-1.313h15.3v1.313h-6.696v5.958H71.83v-5.958H64.81z M73.666,140.214c0.024,0.348-0.003,0.696-0.081,1.044
			c-0.078,0.349-0.189,0.69-0.333,1.026c0.252,0.408,0.594,0.798,1.026,1.17c0.432,0.372,0.918,0.708,1.458,1.008
			s1.109,0.561,1.71,0.783c0.6,0.222,1.188,0.393,1.764,0.513l-0.846,1.278c-1.2-0.276-2.316-0.723-3.348-1.342
			c-1.032-0.617-1.896-1.316-2.592-2.097c-0.336,0.433-0.723,0.837-1.161,1.215c-0.438,0.378-0.909,0.721-1.413,1.026
			s-1.029,0.576-1.575,0.81c-0.546,0.234-1.089,0.424-1.629,0.567l-0.846-1.242c0.888-0.216,1.713-0.516,2.475-0.899
			c0.762-0.385,1.422-0.828,1.98-1.332c0.558-0.504,0.993-1.057,1.305-1.656s0.462-1.224,0.45-1.872H73.666z"/>
		<path d="M93.214,148.062c0,0.349-0.079,0.685-0.235,1.008c-0.157,0.324-0.398,0.615-0.723,0.873
			c-0.326,0.259-0.732,0.478-1.221,0.657c-0.488,0.181-1.064,0.294-1.727,0.342v1.818h6.84v1.314H80.866v-1.314h6.858v-1.818
			c-0.672-0.048-1.251-0.158-1.737-0.333c-0.486-0.174-0.888-0.393-1.206-0.656s-0.555-0.559-0.711-0.883
			c-0.156-0.323-0.234-0.659-0.234-1.008c0-0.396,0.093-0.768,0.279-1.115c0.186-0.349,0.471-0.657,0.855-0.928
			c0.384-0.27,0.87-0.482,1.458-0.639s1.284-0.234,2.088-0.234c0.804,0,1.5,0.078,2.088,0.234c0.587,0.156,1.074,0.369,1.458,0.639
			c0.384,0.271,0.672,0.579,0.864,0.928C93.118,147.295,93.214,147.667,93.214,148.062z M94.546,142.896v1.296H82.468v-1.296H94.546
			z M91.612,140.43v1.314H85.42v-1.314H91.612z M91.63,148.081c0-0.216-0.054-0.423-0.162-0.621
			c-0.108-0.198-0.284-0.378-0.529-0.54c-0.246-0.162-0.565-0.291-0.96-0.387c-0.395-0.097-0.886-0.145-1.472-0.145
			c-0.574,0-1.059,0.048-1.454,0.145c-0.395,0.096-0.712,0.225-0.951,0.387c-0.24,0.162-0.413,0.342-0.521,0.54
			c-0.107,0.198-0.161,0.405-0.161,0.621c0,0.204,0.054,0.404,0.161,0.603c0.108,0.198,0.281,0.375,0.521,0.531
			c0.239,0.156,0.556,0.285,0.951,0.387c0.395,0.103,0.879,0.153,1.454,0.153c0.586,0,1.077-0.051,1.472-0.153
			c0.395-0.102,0.715-0.23,0.96-0.387c0.245-0.156,0.421-0.333,0.529-0.531C91.576,148.485,91.63,148.285,91.63,148.081z"/>
	</g>
</g>
</svg>
