<?xml version="1.0" encoding="utf-8"?>
<!-- Generator: Adobe Illustrator 27.8.1, SVG Export Plug-In . SVG Version: 6.00 Build 0)  -->
<svg version="1.1" id="레이어_1" xmlns="http://www.w3.org/2000/svg" xmlns:xlink="http://www.w3.org/1999/xlink" x="0px"
	 y="0px" width="121.4px" height="170.9px" viewBox="0 0 121.4 170.9" style="enable-background:new 0 0 121.4 170.9;"
	 xml:space="preserve">
<style type="text/css">
	.st0{opacity:0.3;fill:#48B1F8;}
	.st1{fill:none;stroke:#000000;stroke-miterlimit:10;}
	.st2{opacity:0.3;fill:#4AD33C;}
	.st3{opacity:0.3;fill:#FFAA64;}
	.st4{opacity:0.3;fill:#FFFF00;}
	.st5{opacity:0.3;fill:#FF83B6;}
	.st6{opacity:0.3;fill:#938FFF;}
	.st7{fill:#E0F1F7;}
</style>
<g>
	<polygon class="st6" points="90.6,45.1 50.6,45.1 70.6,79.8 50.6,114.4 30.6,79.8 10.6,45.1 30.6,10.5 110.6,10.5 	"/>
	<line class="st1" x1="30.6" y1="10.5" x2="50.6" y2="45.1"/>
	<line class="st1" x1="50.6" y1="45.1" x2="10.6" y2="45.1"/>
	<line class="st1" x1="30.6" y1="79.8" x2="50.6" y2="45.1"/>
	<line class="st1" x1="30.6" y1="79.8" x2="70.6" y2="79.8"/>
	<line class="st1" x1="90.6" y1="45.1" x2="70.6" y2="10.5"/>
	<line class="st1" x1="70.6" y1="10.5" x2="50.6" y2="45.1"/>
	<polygon class="st1" points="90.6,45.1 50.6,45.1 70.6,79.8 50.6,114.4 30.6,79.8 10.6,45.1 30.6,10.5 110.6,10.5 	"/>
</g>
<g>
	<g>
		<path class="st7" d="M45.1,160.9c-2.8,0-5-2.2-5-5v-16.4c0-2.8,2.2-5,5-5h31c2.8,0,5,2.2,5,5v16.4c0,2.8-2.2,5-5,5H45.1z"/>
	</g>
	<g>
		<path d="M53.6,146.2c0,1-0.1,1.8-0.3,2.6c-0.2,0.7-0.5,1.4-0.9,1.8c-0.4,0.5-0.8,0.9-1.3,1.1c-0.5,0.3-1.1,0.4-1.7,0.4
			s-1.1-0.1-1.7-0.4c-0.5-0.3-1-0.6-1.3-1.1c-0.4-0.5-0.7-1.1-0.9-1.8s-0.3-1.6-0.3-2.6c0-1,0.1-1.8,0.3-2.5
			c0.2-0.7,0.5-1.3,0.9-1.8c0.4-0.5,0.8-0.9,1.3-1.1c0.5-0.3,1.1-0.4,1.7-0.4s1.1,0.1,1.7,0.4c0.5,0.3,1,0.6,1.3,1.1
			c0.4,0.5,0.7,1.1,0.9,1.8C53.4,144.4,53.6,145.3,53.6,146.2z M52,146.2c0-0.7-0.1-1.3-0.2-1.8s-0.3-1-0.5-1.4
			c-0.2-0.4-0.5-0.7-0.8-0.9c-0.3-0.2-0.7-0.3-1.1-0.3c-0.4,0-0.8,0.1-1.1,0.3c-0.3,0.2-0.6,0.5-0.8,0.9s-0.4,0.9-0.5,1.4
			c-0.1,0.6-0.2,1.2-0.2,1.8c0,0.7,0.1,1.3,0.2,1.8c0.1,0.6,0.3,1,0.5,1.4s0.5,0.7,0.8,0.9c0.3,0.2,0.7,0.3,1.1,0.3
			c0.4,0,0.8-0.1,1.1-0.3c0.3-0.2,0.6-0.5,0.8-0.9c0.2-0.4,0.4-0.9,0.5-1.4S52,146.9,52,146.2z M56.7,139.4h1.5v16.4h-1.5V139.4z"/>
		<path d="M60.8,143.2v-1.3h10.1v1.3H60.8z M65.7,150c-0.7,0-1.3-0.1-1.8-0.2c-0.5-0.2-0.9-0.4-1.3-0.7c-0.3-0.3-0.6-0.6-0.7-1
			c-0.2-0.4-0.2-0.7-0.2-1.1c0-0.4,0.1-0.8,0.2-1.1c0.2-0.4,0.4-0.7,0.7-0.9c0.3-0.3,0.7-0.5,1.3-0.7c0.5-0.2,1.1-0.2,1.8-0.2
			s1.3,0.1,1.8,0.2c0.5,0.2,0.9,0.4,1.3,0.7c0.3,0.3,0.6,0.6,0.7,0.9c0.2,0.4,0.2,0.7,0.2,1.1c0,0.4-0.1,0.8-0.2,1.1
			c-0.2,0.4-0.4,0.7-0.7,1c-0.3,0.3-0.7,0.5-1.3,0.7C67,149.9,66.4,150,65.7,150z M62.9,140.8v-1.3h5.9v1.3H62.9z M65.7,148.7
			c0.4,0,0.8,0,1.1-0.1c0.3-0.1,0.6-0.2,0.8-0.4c0.2-0.2,0.3-0.3,0.4-0.6s0.1-0.4,0.1-0.6c0-0.2,0-0.4-0.1-0.6s-0.2-0.4-0.4-0.5
			c-0.2-0.2-0.4-0.3-0.8-0.4c-0.3-0.1-0.7-0.2-1.1-0.2s-0.8,0.1-1.1,0.2c-0.3,0.1-0.6,0.2-0.8,0.4c-0.2,0.2-0.3,0.3-0.4,0.5
			s-0.1,0.4-0.1,0.6c0,0.2,0,0.4,0.1,0.6s0.2,0.4,0.4,0.6c0.2,0.2,0.4,0.3,0.8,0.4C64.9,148.7,65.3,148.7,65.7,148.7z M74.6,155.5
			H64v-3.9h1.6v2.6h9.1V155.5z M70.3,145.8v-1.3h2.4v-5.1h1.5v12.2h-1.5v-2.7h-2.4v-1.3h2.4v-1.7H70.3z"/>
	</g>
</g>
</svg>
