<?xml version="1.0" encoding="iso-8859-1"?>
<!-- Generator: Adobe Illustrator 27.8.1, SVG Export Plug-In . SVG Version: 6.00 Build 0)  -->
<svg version="1.1" id="&#xB808;&#xC774;&#xC5B4;_1" xmlns="http://www.w3.org/2000/svg" xmlns:xlink="http://www.w3.org/1999/xlink"
	 x="0px" y="0px" width="161.443px" height="171.354px" viewBox="0 0 161.443 171.354"
	 style="enable-background:new 0 0 161.443 171.354;" xml:space="preserve">
<style type="text/css">
	.st0{opacity:0.3;fill:#48B1F8;}
	.st1{fill:none;stroke:#000000;stroke-miterlimit:10;}
	.st2{opacity:0.3;fill:#4AD33C;}
	.st3{opacity:0.3;fill:#FFAA64;}
	.st4{opacity:0.3;fill:#FFFF00;}
	.st5{opacity:0.3;fill:#FF83B6;}
	.st6{opacity:0.3;fill:#938FFF;}
	.st7{fill:#E0F1F7;}
</style>
<g>
	<polygon class="st4" points="130.866,80.28 90.866,80.28 110.866,114.92 30.866,114.92 10.866,80.28 50.866,80.28 70.866,45.64 
		110.866,45.64 130.866,11 150.866,45.64 	"/>
	<line class="st1" x1="70.866" y1="45.639" x2="90.866" y2="80.28"/>
	<line class="st1" x1="90.866" y1="80.28" x2="50.866" y2="80.28"/>
	<line class="st1" x1="70.866" y1="114.921" x2="50.866" y2="80.28"/>
	<line class="st1" x1="70.866" y1="114.921" x2="90.866" y2="80.28"/>
	<line class="st1" x1="30.866" y1="114.921" x2="50.866" y2="80.28"/>
	<line class="st1" x1="110.866" y1="45.639" x2="90.866" y2="80.28"/>
	<line class="st1" x1="110.866" y1="45.639" x2="150.866" y2="45.639"/>
	<line class="st1" x1="110.866" y1="45.639" x2="130.866" y2="80.28"/>
	<polygon class="st1" points="130.866,80.28 90.866,80.28 110.866,114.92 30.866,114.92 10.866,80.28 50.866,80.28 70.866,45.64 
		110.866,45.64 130.866,11 150.866,45.64 	"/>
</g>
<g>
	<g>
		<path class="st7" d="M65.386,161.354c-2.75,0-5-2.25-5-5v-16.434c0-2.75,2.25-5,5-5h30.96c2.75,0,5,2.25,5,5v16.434
			c0,2.75-2.25,5-5,5H65.386z"/>
	</g>
	<g>
		<path d="M67.366,148.993v-7.65h10.277v1.351H68.95v4.949h8.855v1.351H73.36v3.6h6.75v1.314H64.81v-1.314h6.967v-3.6H67.366z"/>
		<path d="M89.65,152.953h-1.584v-3.492h-7.38v-1.332h15.642v1.332H89.65V152.953z M90.37,143.971
			c0.731,0.433,1.523,0.808,2.376,1.125c0.852,0.318,1.71,0.579,2.574,0.783l-0.811,1.296c-0.42-0.107-0.863-0.246-1.332-0.414
			c-0.468-0.168-0.933-0.356-1.395-0.566s-0.912-0.436-1.351-0.676c-0.438-0.239-0.843-0.491-1.215-0.756
			c-1.008,0.624-2.076,1.144-3.204,1.558s-2.238,0.687-3.33,0.818l-0.737-1.242c0.972-0.132,1.908-0.342,2.808-0.63
			c0.9-0.288,1.734-0.623,2.502-1.008c0.768-0.384,1.452-0.798,2.052-1.242c0.601-0.443,1.092-0.894,1.477-1.35
			c-0.637,0.024-1.264,0.036-1.881,0.036c-0.618,0-1.251,0-1.899,0h-3.798v-1.296H88.3c0.756,0,1.515,0,2.277,0
			c0.762,0,1.557-0.012,2.385-0.036c0.145-0.012,0.24,0.033,0.288,0.135c0.048,0.103,0.042,0.207-0.018,0.315
			c-0.312,0.575-0.711,1.128-1.197,1.655C91.549,143.005,90.994,143.503,90.37,143.971z M94.313,156.103h-11.07v-4.896h1.548v3.546
			h9.522V156.103z"/>
	</g>
</g>
</svg>
