<?xml version="1.0" encoding="iso-8859-1"?>
<!-- Generator: Adobe Illustrator 27.8.1, SVG Export Plug-In . SVG Version: 6.00 Build 0)  -->
<svg version="1.1" id="&#xB808;&#xC774;&#xC5B4;_1" xmlns="http://www.w3.org/2000/svg" xmlns:xlink="http://www.w3.org/1999/xlink"
	 x="0px" y="0px" width="121.155px" height="171.35px" viewBox="0 0 121.155 171.35"
	 style="enable-background:new 0 0 121.155 171.35;" xml:space="preserve">
<style type="text/css">
	.st0{opacity:0.3;fill:#48B1F8;}
	.st1{fill:none;stroke:#000000;stroke-miterlimit:10;}
	.st2{opacity:0.3;fill:#4AD33C;}
	.st3{opacity:0.3;fill:#FFAA64;}
	.st4{opacity:0.3;fill:#FFFF00;}
	.st5{opacity:0.3;fill:#FF83B6;}
	.st6{opacity:0.3;fill:#938FFF;}
	.st7{fill:#E0F1F7;}
</style>
<g>
	<polygon class="st4" points="90.577,80.275 70.577,114.915 50.577,80.275 30.577,114.915 10.577,80.275 30.577,45.635 
		70.577,45.635 90.577,10.995 110.577,45.635 	"/>
	<line class="st1" x1="30.577" y1="45.634" x2="50.577" y2="80.275"/>
	<line class="st1" x1="90.577" y1="80.275" x2="10.577" y2="80.275"/>
	<line class="st1" x1="30.577" y1="114.916" x2="50.577" y2="80.275"/>
	<line class="st1" x1="70.577" y1="45.634" x2="50.577" y2="80.275"/>
	<line class="st1" x1="70.577" y1="45.634" x2="110.577" y2="45.634"/>
	<line class="st1" x1="70.577" y1="45.634" x2="90.577" y2="80.275"/>
	<polygon class="st1" points="90.577,80.275 70.577,114.915 50.577,80.275 30.577,114.915 10.577,80.275 30.577,45.635 
		70.577,45.635 90.577,10.995 110.577,45.635 	"/>
</g>
<g>
	<g>
		<path class="st7" d="M45.097,161.35c-2.75,0-5-2.25-5-5v-16.434c0-2.75,2.25-5,5-5h30.96c2.75,0,5,2.25,5,5v16.434
			c0,2.75-2.25,5-5,5H45.097z"/>
	</g>
	<g>
		<path d="M53.558,146.73c0,0.961-0.108,1.812-0.325,2.551s-0.514,1.354-0.893,1.848c-0.379,0.492-0.827,0.865-1.344,1.117
			c-0.518,0.253-1.07,0.379-1.66,0.379c-0.589,0-1.14-0.126-1.65-0.379c-0.511-0.252-0.959-0.625-1.344-1.117
			c-0.385-0.493-0.688-1.108-0.911-1.848s-0.333-1.59-0.333-2.551c0-0.962,0.11-1.81,0.333-2.542
			c0.223-0.733,0.526-1.347,0.911-1.839c0.385-0.493,0.833-0.865,1.344-1.118c0.511-0.252,1.062-0.378,1.65-0.378
			c0.59,0,1.143,0.126,1.66,0.378c0.517,0.253,0.965,0.625,1.344,1.118c0.379,0.492,0.676,1.105,0.893,1.839
			C53.449,144.921,53.558,145.768,53.558,146.73z M51.974,146.73c0-0.671-0.061-1.282-0.181-1.833s-0.291-1.023-0.513-1.419
			s-0.498-0.7-0.828-0.916s-0.705-0.323-1.125-0.323s-0.795,0.107-1.125,0.323s-0.605,0.521-0.828,0.916
			c-0.222,0.396-0.393,0.868-0.513,1.419s-0.18,1.162-0.18,1.833c0,0.67,0.06,1.281,0.18,1.832s0.291,1.023,0.513,1.419
			c0.223,0.396,0.498,0.704,0.828,0.926s0.705,0.332,1.125,0.332s0.795-0.11,1.125-0.332s0.606-0.53,0.828-0.926
			s0.393-0.868,0.513-1.419S51.974,147.4,51.974,146.73z M56.653,139.917h1.548v16.434h-1.548V139.917z"/>
		<path d="M61.279,152.751l-1.116-0.99c0.732-0.527,1.41-1.134,2.034-1.817c0.624-0.685,1.152-1.468,1.584-2.35
			c0.433-0.882,0.753-1.875,0.963-2.979c0.21-1.104,0.268-2.334,0.171-3.69h1.639c0.023,0.792,0,1.542-0.072,2.25
			s-0.174,1.386-0.306,2.034c0.432,1.236,1.044,2.367,1.836,3.393c0.792,1.026,1.733,1.905,2.826,2.638l-1.009,1.151
			c-0.899-0.636-1.707-1.389-2.421-2.259s-1.322-1.851-1.827-2.942c-0.456,1.176-1.047,2.223-1.772,3.141
			C63.082,151.248,62.239,152.055,61.279,152.751z M69.037,146.901v-1.351h3.672v-5.634h1.549v16.434h-1.549v-9.449H69.037z"/>
	</g>
</g>
</svg>
