<?xml version="1.0" encoding="iso-8859-1"?>
<!-- Generator: Adobe Illustrator 27.8.1, SVG Export Plug-In . SVG Version: 6.00 Build 0)  -->
<svg version="1.1" id="&#xB808;&#xC774;&#xC5B4;_1" xmlns="http://www.w3.org/2000/svg" xmlns:xlink="http://www.w3.org/1999/xlink"
	 x="0px" y="0px" width="161.732px" height="171.35px" viewBox="0 0 161.732 171.35"
	 style="enable-background:new 0 0 161.732 171.35;" xml:space="preserve">
<style type="text/css">
	.st0{opacity:0.3;fill:#48B1F8;}
	.st1{fill:none;stroke:#000000;stroke-miterlimit:10;}
	.st2{opacity:0.3;fill:#4AD33C;}
	.st3{opacity:0.3;fill:#FFAA64;}
	.st4{opacity:0.3;fill:#FFFF00;}
	.st5{opacity:0.3;fill:#FF83B6;}
	.st6{opacity:0.3;fill:#938FFF;}
	.st7{fill:#E0F1F7;}
</style>
<g>
	<polygon class="st4" points="130.866,80.276 90.866,80.276 110.866,114.916 30.866,114.916 10.866,80.276 50.866,80.276 
		70.866,45.636 150.866,45.636 	"/>
	<line class="st1" x1="70.868" y1="45.634" x2="90.868" y2="80.275"/>
	<line class="st1" x1="90.868" y1="80.275" x2="50.868" y2="80.275"/>
	<line class="st1" x1="70.868" y1="114.916" x2="50.868" y2="80.275"/>
	<line class="st1" x1="70.868" y1="114.916" x2="90.868" y2="80.275"/>
	<line class="st1" x1="30.868" y1="114.916" x2="50.868" y2="80.275"/>
	<line class="st1" x1="110.868" y1="45.634" x2="90.868" y2="80.275"/>
	<line class="st1" x1="110.868" y1="45.634" x2="130.868" y2="80.275"/>
	<polygon class="st1" points="130.866,80.276 90.866,80.276 110.866,114.916 30.866,114.916 10.866,80.276 50.866,80.276 
		70.866,45.636 150.866,45.636 	"/>
</g>
<g>
	<g>
		<path class="st7" d="M65.386,161.35c-2.75,0-5-2.25-5-5v-16.434c0-2.75,2.25-5,5-5h30.96c2.75,0,5,2.25,5,5v16.434
			c0,2.75-2.25,5-5,5H65.386z"/>
	</g>
	<g>
		<path d="M71.668,147.045c0.505,0.792,1.099,1.557,1.782,2.295c0.685,0.738,1.422,1.396,2.214,1.971l-1.151,1.116
			c-0.721-0.552-1.384-1.176-1.989-1.872c-0.606-0.695-1.167-1.439-1.683-2.231c-0.696,0.972-1.471,1.854-2.322,2.646
			c-0.853,0.792-1.746,1.458-2.683,1.998l-1.044-1.044c0.96-0.516,1.846-1.158,2.655-1.926c0.811-0.768,1.518-1.578,2.124-2.43
			c0.605-0.853,1.095-1.71,1.467-2.574s0.595-1.656,0.666-2.376c-0.684,0.024-1.353,0.039-2.007,0.045s-1.317,0.009-1.989,0.009
			h-1.943v-1.313h2.897c0.769,0,1.548,0,2.34,0s1.614-0.012,2.467-0.036c-0.036,0.972-0.211,1.943-0.522,2.916
			C72.633,145.209,72.208,146.145,71.668,147.045z M76.942,139.917h1.548v16.434h-1.548V139.917z"/>
		<path d="M80.866,150.483v-1.314h15.301v1.314H89.47v5.777h-1.584v-5.777H80.866z M94.096,143.895c0,0.479-0.117,0.936-0.352,1.367
			c-0.233,0.433-0.582,0.813-1.044,1.144s-1.032,0.594-1.71,0.792s-1.467,0.297-2.366,0.297c-0.9,0-1.689-0.099-2.367-0.297
			c-0.679-0.198-1.248-0.462-1.71-0.792c-0.463-0.33-0.811-0.711-1.044-1.144c-0.234-0.432-0.352-0.888-0.352-1.367
			c0-0.48,0.117-0.939,0.352-1.378c0.233-0.438,0.581-0.824,1.044-1.16c0.462-0.336,1.031-0.604,1.71-0.802
			c0.678-0.197,1.467-0.297,2.367-0.297c0.899,0,1.688,0.1,2.366,0.297c0.678,0.198,1.248,0.466,1.71,0.802s0.811,0.723,1.044,1.16
			C93.979,142.956,94.096,143.415,94.096,143.895z M92.422,143.895c0-0.288-0.072-0.567-0.217-0.838
			c-0.144-0.27-0.368-0.513-0.675-0.729c-0.306-0.216-0.699-0.39-1.179-0.522c-0.48-0.132-1.056-0.197-1.728-0.197
			c-0.673,0-1.249,0.065-1.729,0.197c-0.48,0.133-0.873,0.307-1.179,0.522c-0.307,0.216-0.531,0.459-0.675,0.729
			c-0.145,0.271-0.217,0.55-0.217,0.838c0,0.287,0.072,0.566,0.217,0.837c0.144,0.27,0.368,0.51,0.675,0.72
			c0.306,0.21,0.698,0.378,1.179,0.504c0.479,0.126,1.056,0.189,1.729,0.189c0.672,0,1.247-0.063,1.728-0.189
			c0.479-0.126,0.873-0.294,1.179-0.504c0.307-0.21,0.531-0.45,0.675-0.72C92.35,144.462,92.422,144.182,92.422,143.895z"/>
	</g>
</g>
</svg>
